<svg xmlns="http://www.w3.org/2000/svg" version="1.1" xmlns:xlink="http://www.w3.org/1999/xlink" xmlns:svgjs="http://svgjs.com/svgjs" width="1920" height="300" preserveAspectRatio="none" viewBox="0 0 1920 300">
    <g mask="url(&quot;#SvgjsMask7639&quot;)" fill="none">
        <path d="M507.96 291.55a5.6 5.6 0 1 0 10.05-4.94 5.6 5.6 0 1 0-10.05 4.94zM522.32 284.5a5.6 5.6 0 1 0 10.05-4.94 5.6 5.6 0 1 0-10.05 4.94zM536.68 277.45a5.6 5.6 0 1 0 10.06-4.94 5.6 5.6 0 1 0-10.06 4.94zM551.05 270.4a5.6 5.6 0 1 0 10.05-4.93 5.6 5.6 0 1 0-10.05 4.93z" stroke="rgba(67, 75, 171, 1)" stroke-width="2.89" stroke-dasharray="4, 4"></path>
        <rect width="117.84" height="117.84" clip-path="url(&quot;#SvgjsClipPath7640&quot;)" x="9.99" y="154.26" fill="url(#SvgjsPattern7641)" transform="rotate(261.16, 68.91, 213.18)"></rect>
        <rect width="192" height="192" clip-path="url(&quot;#SvgjsClipPath7642&quot;)" x="438.32" y="164.03" fill="url(#SvgjsPattern7643)" transform="rotate(354.54, 534.32, 260.03)"></rect>
        <circle r="25" cx="521.86" cy="11.85" stroke="rgba(67, 75, 171, 1)" stroke-width="2.55" stroke-dasharray="3, 2"></circle>
        <path d="M156.75 256.67a5.6 5.6 0 1 0-9.81-5.4 5.6 5.6 0 1 0 9.81 5.4zM142.74 248.95a5.6 5.6 0 1 0-9.81-5.41 5.6 5.6 0 1 0 9.81 5.41zM128.72 241.23a5.6 5.6 0 1 0-9.81-5.41 5.6 5.6 0 1 0 9.81 5.41zM114.71 233.51a5.6 5.6 0 1 0-9.81-5.41 5.6 5.6 0 1 0 9.81 5.41zM192.5 258.11a5.6 5.6 0 1 0-9.81-5.41 5.6 5.6 0 1 0 9.81 5.41zM178.48 250.38a5.6 5.6 0 1 0-9.8-5.4 5.6 5.6 0 1 0 9.8 5.4zM164.47 242.66a5.6 5.6 0 1 0-9.81-5.41 5.6 5.6 0 1 0 9.81 5.41zM150.46 234.94a5.6 5.6 0 1 0-9.81-5.41 5.6 5.6 0 1 0 9.81 5.41z" stroke="#e73635" stroke-width="1.02" stroke-dasharray="3, 3"></path>
        <rect width="180" height="180" clip-path="url(&quot;#SvgjsClipPath7644&quot;)" x="687.78" y="102.1" fill="url(#SvgjsPattern7645)" transform="rotate(66.72, 777.78, 192.1)"></rect>
        <rect width="120" height="120" clip-path="url(&quot;#SvgjsClipPath7646&quot;)" x="552.98" y="43.6" fill="url(#SvgjsPattern7647)" transform="rotate(7.02, 612.98, 103.6)"></rect>
        <circle r="25" cx="176.79" cy="151.09" stroke="#d3b714" stroke-width="2.61" stroke-dasharray="4, 4"></circle>
        <path d="M932.01 26.4a5.6 5.6 0 1 0-0.46-11.19 5.6 5.6 0 1 0 0.46 11.19zM931.35 10.42a5.6 5.6 0 1 0-0.46-11.19 5.6 5.6 0 1 0 0.46 11.19zM930.69-5.57a5.6 5.6 0 1 0-0.46-11.19 5.6 5.6 0 1 0 0.46 11.19zM930.03-21.56a5.6 5.6 0 1 0-0.46-11.19 5.6 5.6 0 1 0 0.46 11.19z" stroke="rgba(67, 75, 171, 1)" stroke-width="2.86" stroke-dasharray="3, 3"></path>
        <path d="M474.02 165.66L472.21 152.98 484.18 148.43 482.37 135.76 494.35 131.21 492.54 118.53 504.51 113.98M480.91 169.72L479.1 157.05 491.07 152.5 489.26 139.82 501.24 135.27 499.43 122.59 511.4 118.05" stroke="#d3b714" stroke-width="1"></path>
        <circle r="25" cx="1877.12" cy="196.14" fill="#e73635"></circle>
        <rect width="128.4" height="128.4" clip-path="url(&quot;#SvgjsClipPath7648&quot;)" x="1363.66" y="144.37" fill="url(#SvgjsPattern7649)" transform="rotate(43.91, 1427.86, 208.57)"></rect>
        <circle r="25" cx="1293.42" cy="96.86" stroke="#d3b714" stroke-width="1.16" stroke-dasharray="2, 2"></circle>
        <rect width="122.6" height="122.6" clip-path="url(&quot;#SvgjsClipPath7650&quot;)" x="1754.58" y="144.18" fill="url(#SvgjsPattern7651)" transform="rotate(235.04, 1815.88, 205.48)"></rect>
        <path d="M1528.02 158.44 L1549.6000000000001 74.1L1580.8829918610581 158.34299186105827z" stroke="#e73635" stroke-width="2.66" stroke-dasharray="2, 2"></path>
        <path d="M1200.79 182.60999999999999 L1139.8899999999999 241.19L1136.7821023029687 178.34210230296878z" stroke="rgba(67, 75, 171, 1)" stroke-width="1.06" stroke-dasharray="4, 4"></path>
        <rect width="64.80000000000001" height="64.80000000000001" clip-path="url(&quot;#SvgjsClipPath7652&quot;)" x="1239.55" y="-22.53" fill="url(#SvgjsPattern7653)" transform="rotate(113.16, 1271.95, 9.87)"></rect>
        <path d="M1726.1 50.93L1725.16 38.16 1737.42 34.44 1736.48 21.67 1748.73 17.95 1747.79 5.18 1760.05 1.46" stroke="#e73635" stroke-width="2.86" stroke-dasharray="2, 2"></path>
        <rect width="132" height="132" clip-path="url(&quot;#SvgjsClipPath7654&quot;)" x="795.76" y="135.58" fill="url(#SvgjsPattern7655)" transform="rotate(82.71, 861.76, 201.58)"></rect>
        <circle r="36.68534134935961" cx="1911.01" cy="11.04" stroke="#037b0b" stroke-width="1" stroke-dasharray="2, 2"></circle>
        <path d="M1686.03 231.49L1676.97 240.55 1666.15 233.7 1657.09 242.76 1646.27 235.92 1637.22 244.97 1626.39 238.13M1685.14 223.54L1676.09 232.6 1665.26 225.75 1656.21 234.81 1645.39 227.97 1636.33 237.02 1625.51 230.18" stroke="#d3b714" stroke-width="1.9" stroke-dasharray="2, 2"></path>
        <path d="M483.7 236.55L472.4 230.52 475.8 218.18 464.5 212.15 467.89 199.8 456.59 193.78 459.99 181.43" stroke="rgba(67, 75, 171, 1)" stroke-width="1.17" stroke-dasharray="3, 2"></path>
        <rect width="72" height="72" clip-path="url(&quot;#SvgjsClipPath7656&quot;)" x="207.85" y="184.67" fill="url(#SvgjsPattern7657)" transform="rotate(295.93, 243.85, 220.67)"></rect>
        <rect width="168" height="168" clip-path="url(&quot;#SvgjsClipPath7658&quot;)" x="1825.17" y="133.3" fill="url(#SvgjsPattern7659)" transform="rotate(267.3, 1909.17, 217.3)"></rect>
        <path d="M1562.41 333.16999999999996 L1583.34 353.7L1557.6873231234276 358.6226768765723z" fill="#e73635"></path>
        <circle r="32.073951673852754" cx="395.83" cy="165.09" fill="rgba(67, 75, 171, 1)"></circle>
        <path d="M605.57 51.98L617.25 57.25 614.67 69.79 626.34 75.06 623.76 87.61 635.43 92.88 632.85 105.42M598.45 55.62L610.12 60.89 607.54 73.43 619.21 78.7 616.63 91.25 628.3 96.52 625.72 109.06" stroke="#e73635" stroke-width="1.73"></path>
        <path d="M1121.62 173.01 L1117.82 191.28L1109.06626685444 171.49126685444025z" fill="#d3b714"></path>
        <path d="M1180.81 6.86a5.6 5.6 0 1 0-10.67 3.42 5.6 5.6 0 1 0 10.67-3.42zM1165.57 11.74a5.6 5.6 0 1 0-10.66 3.42 5.6 5.6 0 1 0 10.66-3.42zM1150.33 16.63a5.6 5.6 0 1 0-10.66 3.41 5.6 5.6 0 1 0 10.66-3.41zM1135.1 21.51a5.6 5.6 0 1 0-10.67 3.42 5.6 5.6 0 1 0 10.67-3.42z" stroke="#037b0b" stroke-width="2.23" stroke-dasharray="4, 4"></path>
    </g>
    <defs>
        <mask id="SvgjsMask7639">
            <rect width="1920" height="300" fill="#ffffff"></rect>
        </mask>
        <pattern x="0" y="0" width="9.82" height="9.82" patternUnits="userSpaceOnUse" id="SvgjsPattern7641">
            <path d="M0 9.82L4.91 0L9.82 9.82" stroke="#037b0b" fill="none"></path>
        </pattern>
        <clipPath id="SvgjsClipPath7640">
            <circle r="29.46" cx="68.91" cy="213.18"></circle>
        </clipPath>
        <pattern x="0" y="0" width="6" height="6" patternUnits="userSpaceOnUse" id="SvgjsPattern7643">
            <path d="M0 6L3 0L6 6" stroke="rgba(67, 75, 171, 1)" fill="none"></path>
        </pattern>
        <clipPath id="SvgjsClipPath7642">
            <circle r="48" cx="534.32" cy="260.03"></circle>
        </clipPath>
        <pattern x="0" y="0" width="6" height="6" patternUnits="userSpaceOnUse" id="SvgjsPattern7645">
            <path d="M3 1L3 5M1 3L5 3" stroke="#037b0b" fill="none" stroke-width="1"></path>
        </pattern>
        <clipPath id="SvgjsClipPath7644">
            <circle r="45" cx="777.78" cy="192.1"></circle>
        </clipPath>
        <pattern x="0" y="0" width="120" height="6" patternUnits="userSpaceOnUse" id="SvgjsPattern7647">
            <rect width="120" height="3" x="0" y="0" fill="#d3b714"></rect>
            <rect width="120" height="3" x="0" y="3" fill="rgba(0, 0, 0, 0)"></rect>
        </pattern>
        <clipPath id="SvgjsClipPath7646">
            <circle r="30" cx="612.98" cy="103.6"></circle>
        </clipPath>
        <pattern x="0" y="0" width="12.84" height="12.84" patternUnits="userSpaceOnUse" id="SvgjsPattern7649">
            <path d="M0 12.84L6.42 0L12.84 12.84" stroke="rgba(67, 75, 171, 1)" fill="none"></path>
        </pattern>
        <clipPath id="SvgjsClipPath7648">
            <circle r="32.1" cx="1427.86" cy="208.57"></circle>
        </clipPath>
        <pattern x="0" y="0" width="12.26" height="12.26" patternUnits="userSpaceOnUse" id="SvgjsPattern7651">
            <path d="M6.13 1L6.13 11.26M1 6.13L11.26 6.13" stroke="rgba(67, 75, 171, 1)" fill="none" stroke-width="3.51"></path>
        </pattern>
        <clipPath id="SvgjsClipPath7650">
            <circle r="30.65" cx="1815.88" cy="205.48"></circle>
        </clipPath>
        <pattern x="0" y="0" width="6.48" height="6.48" patternUnits="userSpaceOnUse" id="SvgjsPattern7653">
            <path d="M0 6.48L3.24 0L6.48 6.48" stroke="#037b0b" fill="none"></path>
        </pattern>
        <clipPath id="SvgjsClipPath7652">
            <circle r="16.200000000000003" cx="1271.95" cy="9.87"></circle>
        </clipPath>
        <pattern x="0" y="0" width="6" height="6" patternUnits="userSpaceOnUse" id="SvgjsPattern7655">
            <path d="M3 1L3 5M1 3L5 3" stroke="#037b0b" fill="none" stroke-width="1"></path>
        </pattern>
        <clipPath id="SvgjsClipPath7654">
            <circle r="33" cx="861.76" cy="201.58"></circle>
        </clipPath>
        <pattern x="0" y="0" width="72" height="6" patternUnits="userSpaceOnUse" id="SvgjsPattern7657">
            <rect width="72" height="3" x="0" y="0" fill="rgba(67, 75, 171, 1)"></rect>
            <rect width="72" height="3" x="0" y="3" fill="rgba(0, 0, 0, 0)"></rect>
        </pattern>
        <clipPath id="SvgjsClipPath7656">
            <circle r="18" cx="243.85" cy="220.67"></circle>
        </clipPath>
        <pattern x="0" y="0" width="168" height="6" patternUnits="userSpaceOnUse" id="SvgjsPattern7659">
            <rect width="168" height="3" x="0" y="0" fill="rgba(67, 75, 171, 1)"></rect>
            <rect width="168" height="3" x="0" y="3" fill="rgba(0, 0, 0, 0)"></rect>
        </pattern>
        <clipPath id="SvgjsClipPath7658">
            <circle r="42" cx="1909.17" cy="217.3"></circle>
        </clipPath>
    </defs>
</svg>