<?xml version="1.0" standalone="no"?><!DOCTYPE svg PUBLIC "-//W3C//DTD SVG 1.1//EN" "http://www.w3.org/Graphics/SVG/1.1/DTD/svg11.dtd"><svg t="1651719251724" class="icon" viewBox="0 0 1024 1024" version="1.1" xmlns="http://www.w3.org/2000/svg" p-id="4393" xmlns:xlink="http://www.w3.org/1999/xlink" width="200" height="200"><defs><style type="text/css">@font-face { font-family: feedback-iconfont; src: url("//at.alicdn.com/t/font_1031158_u69w8yhxdu.woff2?t=1630033759944") format("woff2"), url("//at.alicdn.com/t/font_1031158_u69w8yhxdu.woff?t=1630033759944") format("woff"), url("//at.alicdn.com/t/font_1031158_u69w8yhxdu.ttf?t=1630033759944") format("truetype"); }
</style></defs><path d="M514.178 118.35l356.654 109.582 0.168 322.987C871 674.204 751.333 801.906 511.976 934 272.643 801.906 153 674.228 153 550.919V227.884L509.535 118.35a7.877 7.877 0 0 1 4.643 0z m-2.323 82.977L233 286.996v263.923c0 38.697 20.702 82.512 66.711 132.042l1.402 1.502c46.472 49.593 115.648 101.708 207.364 155.52l3.501 2.048 0.717-0.417c92.052-53.773 161.631-105.866 208.57-155.454l1.61-1.709c46.528-49.648 67.7-93.572 68.119-132.318l0.006-1.173-0.137-263.908-279.008-85.725z m187.336 190.482c16.792 16.793 16.792 44.019 0 60.811L523.62 628.19c-16.793 16.793-44.02 16.793-60.812 0a43.521 43.521 0 0 1-2.83-3.115l-102.573-92.858c-16.793-16.793-16.793-44.019 0-60.811 16.792-16.793 44.018-16.793 60.81 0l73.779 66.787L638.38 391.81c16.792-16.792 44.018-16.792 60.81 0z" fill="#13227a" p-id="4394"></path></svg>